<?xml version="1.0" standalone="no"?>
<!DOCTYPE svg PUBLIC "-//W3C//DTD SVG 20010904//EN"
 "http://www.w3.org/TR/2001/REC-SVG-20010904/DTD/svg10.dtd">
<svg version="1.0" xmlns="http://www.w3.org/2000/svg"
 width="300.000000pt" height="223.000000pt" viewBox="0 0 300.000000 223.000000"
 preserveAspectRatio="xMidYMid meet">
<metadata>
Created by potrace 1.10, written by Peter Selinger 2001-2011
</metadata>
<g transform="translate(0.000000,223.000000) scale(0.100000,-0.100000)"
fill="#3f51b5" stroke="none">
<path d="M1321 2156 c-18 -19 -24 -40 -28 -88 -6 -76 16 -146 81 -258 23 -41
51 -98 60 -127 10 -29 29 -69 43 -89 15 -23 23 -46 20 -61 -3 -15 0 -22 7 -20
18 6 19 46 2 72 -9 13 -16 31 -16 39 0 8 -6 27 -14 43 -48 98 -59 133 -64 203
-4 67 -2 77 17 94 14 13 18 23 12 35 -6 11 -3 23 9 39 16 19 27 22 99 22 44 0
82 -4 86 -9 3 -5 -6 -22 -20 -37 -24 -26 -24 -28 -9 -46 22 -24 27 -23 12 2
-10 16 -10 23 4 36 14 14 20 15 32 4 20 -16 20 -34 1 -50 -24 -20 -17 -31 10
-18 31 14 58 -3 37 -24 -8 -8 -15 -8 -29 3 -16 12 -16 12 0 -8 11 -12 16 -27
12 -33 -4 -6 -4 -23 0 -38 7 -26 8 -25 21 18 20 67 18 107 -6 115 -23 7 -26
28 -6 44 21 17 26 49 10 62 -21 17 -17 57 6 69 48 26 87 -47 74 -138 -9 -63
-51 -173 -75 -194 -11 -9 -42 -69 -69 -132 -47 -109 -62 -176 -40 -176 6 0 8
10 5 23 -4 14 1 32 13 47 10 14 31 57 46 95 15 39 37 86 48 105 82 139 103
202 95 296 -6 76 -25 104 -72 104 -44 0 -68 -29 -63 -75 l4 -37 -35 9 c-47 10
-125 10 -179 0 l-42 -9 12 26 c10 23 8 31 -9 54 -28 37 -71 41 -102 8z m70 -6
c20 -11 26 -54 9 -65 -18 -11 -11 -53 13 -70 l22 -16 -29 -23 c-30 -25 -30
-32 -9 -140 10 -52 -15 -18 -46 64 -39 100 -43 203 -11 238 24 25 25 25 51 12z"/>
<path d="M120 1570 c0 -30 0 -30 -60 -30 -33 0 -60 -4 -60 -10 0 -6 26 -10 59
-10 l60 0 3 -32 c2 -18 6 -32 11 -30 4 1 35 2 70 2 l62 0 0 70 0 70 -72 0 -73
0 0 -30z m109 -22 c11 -31 4 -45 -26 -53 -30 -7 -53 9 -53 40 0 29 8 35 42 35
21 0 31 -6 37 -22z"/>
<path d="M2825 1530 l0 -70 58 -1 c31 -1 63 -2 69 -3 15 -1 26 57 20 107 l-4
37 -72 0 -71 0 0 -70z m109 15 c9 -36 1 -45 -40 -45 -39 0 -51 18 -34 49 16
32 66 29 74 -4z"/>
<path d="M294 1566 c-3 -8 -4 -31 -2 -52 l3 -39 163 -3 162 -2 0 26 c0 22 3
25 23 20 12 -3 30 -6 39 -6 17 0 18 -40 18 -660 l0 -660 -39 0 c-33 0 -40 4
-43 22 -3 23 -5 23 -163 23 l-160 0 -3 -52 -3 -52 156 -3 c85 -2 160 -1 165 0
6 2 10 12 10 22 0 15 9 19 48 22 l47 3 3 450 2 450 60 1 60 1 0 -34 0 -34 72
3 71 3 0 70 0 70 -71 3 -72 3 0 -34 0 -34 -60 1 -60 1 0 217 0 218 -49 0 c-44
0 -50 3 -53 23 -3 22 -6 22 -161 25 -129 2 -158 0 -163 -12z m270 -12 c9 -3
16 -15 16 -25 0 -18 -7 -19 -127 -17 -106 3 -128 6 -128 18 0 8 6 18 15 22 19
8 203 10 224 2z m388 -436 c4 -37 3 -44 -5 -55 -13 -18 -66 -16 -73 2 -4 8 -3
26 0 40 5 21 12 25 41 25 21 0 36 -5 37 -12z m-370 -915 c-6 -2 -9 -9 -6 -15
12 -19 -21 -28 -106 -27 -103 2 -152 10 -131 23 12 8 11 11 -5 17 -10 4 44 8
121 8 77 -1 134 -3 127 -6z"/>
<path d="M2477 1574 c-4 -4 -7 -16 -7 -26 0 -15 -8 -18 -50 -18 l-50 0 -2
-217 -3 -216 -57 -2 -58 -1 0 33 0 34 -72 -3 -71 -3 0 -70 0 -70 71 -3 72 -3
0 34 0 34 60 0 60 1 0 -454 0 -454 50 0 c43 0 50 -3 50 -20 0 -19 7 -20 166
-20 l165 0 -3 52 -3 53 -160 0 c-158 0 -160 0 -163 -22 -3 -19 -10 -23 -43
-23 l-39 0 0 660 c0 620 1 660 18 660 9 0 27 3 40 6 19 5 22 2 22 -20 l0 -26
163 2 162 3 0 50 0 50 -156 3 c-85 1 -158 -1 -162 -4z m277 -23 c4 -5 3 -16 0
-25 -5 -13 -25 -16 -119 -16 -103 0 -113 2 -118 19 -3 11 -2 22 1 25 9 10 230
7 236 -3z m-546 -433 c19 -19 14 -56 -8 -63 -45 -14 -87 28 -60 60 15 18 52
19 68 3z m555 -928 c-5 -20 -34 -24 -173 -22 -93 1 -93 1 -81 16 9 11 9 15 -1
19 -7 3 48 6 124 6 131 1 136 0 131 -19z"/>
<path d="M1386 1467 c-36 -9 -36 -9 -36 -63 0 -30 -4 -54 -10 -54 -5 0 -10 -7
-10 -15 0 -12 19 -15 108 -15 l107 0 -3 -115 -3 -115 -99 0 c-95 0 -99 1 -102
23 -3 22 -5 22 -163 22 l-160 0 -3 -52 -3 -53 165 0 c158 0 166 1 166 20 0 19
8 19 205 19 197 0 205 0 205 -19 0 -19 8 -20 166 -20 l165 0 -3 53 -3 52 -160
0 c-158 0 -160 0 -163 -22 -3 -22 -8 -23 -98 -23 l-94 0 0 115 0 115 105 0
c87 0 105 3 105 15 0 8 -4 15 -10 15 -5 0 -10 25 -10 55 0 49 -2 55 -24 61
-37 9 -301 10 -340 1z m339 -62 l0 -30 -172 -2 -173 -1 0 34 0 34 173 -2 172
-3 0 -30z m-431 -294 c19 -7 19 -8 1 -15 -16 -6 -17 -9 -5 -16 18 -12 -25 -14
-190 -11 -31 1 -41 4 -31 10 12 8 8 11 -14 17 -26 6 -27 8 -10 15 26 10 224
10 249 0z m747 -11 c-8 -4 -11 -12 -7 -18 7 -12 -178 -26 -216 -17 -17 5 -25
12 -21 21 3 8 -1 14 -8 15 -9 0 -8 3 3 7 24 10 265 3 249 -8z"/>
<path d="M120 226 l0 -34 -60 5 c-50 5 -60 3 -60 -10 0 -13 10 -15 60 -12 l60
5 0 -36 0 -35 72 3 71 3 0 70 0 70 -71 3 -72 3 0 -35z m98 -2 c34 -10 31 -61
-5 -70 -45 -12 -80 28 -53 61 14 16 24 18 58 9z"/>
<path d="M2828 253 c-2 -5 -4 -37 -3 -73 l0 -65 72 -3 71 -3 4 42 c2 22 2 56
0 75 l-4 34 -69 0 c-37 0 -69 -3 -71 -7z m101 -41 c17 -31 2 -62 -29 -62 -39
0 -56 23 -42 55 14 30 56 34 71 7z"/>
</g>
</svg>
