<?xml version="1.0" encoding="iso-8859-1"?>
<!-- Uploaded to: SVG Repo, www.svgrepo.com, Generator: SVG Repo Mixer Tools -->
<svg fill="#FC3B56" version="1.1" id="Layer_1" xmlns="http://www.w3.org/2000/svg" xmlns:xlink="http://www.w3.org/1999/xlink" 
	 viewBox="0 0 480 480" xml:space="preserve">
<g>
	<g>
		<path d="M472,0H8C3.584,0,0,3.576,0,8v128c0,4.424,3.584,8,8,8h80v296c0,22.056,17.944,40,40,40h224c22.056,0,40-17.944,40-40V144
			h80c4.416,0,8-3.576,8-8V8C480,3.576,476.416,0,472,0z M295.36,16c-3.904,27.088-27.208,48-55.36,48s-51.456-20.912-55.36-48
			H295.36z M464,128h-80c-4.416,0-8,3.576-8,8v304c0,13.232-10.768,24-24,24H128c-13.232,0-24-10.768-24-24V136c0-4.424-3.584-8-8-8
			H16V16h152.472c4,35.944,34.536,64,71.528,64s67.536-28.056,71.528-64H464V128z"/>
	</g>
</g>
<g>
	<g>
		<path d="M301.656,186.344l-56-56c-3.128-3.128-8.184-3.128-11.312,0l-56,56c-2.288,2.288-2.976,5.728-1.736,8.72
			S180.768,200,184,200h16v80c0,4.424,3.584,8,8,8h64c4.416,0,8-3.576,8-8v-80h16c3.232,0,6.152-1.944,7.392-4.936
			S303.944,188.632,301.656,186.344z M272,184c-4.416,0-8,3.576-8,8v80h-48v-80c0-4.424-3.584-8-8-8h-4.688L240,147.312L276.688,184
			H272z"/>
	</g>
</g>
<g>
	<g>
		<rect x="232" y="336" width="16" height="16"/>
	</g>
</g>
<g>
	<g>
		<rect x="264" y="336" width="16" height="16"/>
	</g>
</g>
<g>
	<g>
		<rect x="200" y="336" width="16" height="16"/>
	</g>
</g>
<g>
	<g>
		<rect x="232" y="368" width="16" height="16"/>
	</g>
</g>
<g>
	<g>
		<rect x="264" y="368" width="16" height="16"/>
	</g>
</g>
<g>
	<g>
		<rect x="296" y="368" width="16" height="16"/>
	</g>
</g>
<g>
	<g>
		<rect x="200" y="368" width="16" height="16"/>
	</g>
</g>
<g>
	<g>
		<rect x="168" y="368" width="16" height="16"/>
	</g>
</g>
<g>
	<g>
		<rect x="232" y="304" width="16" height="16"/>
	</g>
</g>
</svg>